<?xml version="1.0" encoding="UTF-8"?>
<svg id="Layer_1" xmlns="http://www.w3.org/2000/svg" version="1.1" viewBox="0 0 612 792">
  <!-- Generator: Adobe Illustrator 29.8.1, SVG Export Plug-In . SVG Version: 2.1.1 Build 2)  -->
  <defs>
    <style>
      .st0 {
        fill: #fff;
      }
    </style>
  </defs>
  <path class="st0" d="M505.77,379.64c-166.28,13.72-177.4,24.83-191.12,191.12-13.71-166.28-24.83-177.4-191.12-191.12,166.28-13.72,177.4-24.83,191.12-191.12,13.72,166.28,24.84,177.4,191.12,191.12Z"/>
  <path class="st0" d="M428.16,517.99c-40.04,3.3-42.72,5.98-46.03,46.02-3.3-40.04-5.98-42.72-46.02-46.02,40.04-3.3,42.72-5.98,46.02-46.02,3.3,40.04,5.98,42.72,46.03,46.02Z"/>
  <path class="st0" d="M203.76,438.71c-25.36,2.09-27.06,3.79-29.15,29.15-2.09-25.36-3.79-27.06-29.15-29.15,25.36-2.09,27.06-3.79,29.15-29.15,2.09,25.36,3.79,27.06,29.15,29.15Z"/>
  <path class="st0" d="M409.59,263.25c-15.09,1.24-16.1,2.25-17.34,17.34-1.24-15.09-2.25-16.1-17.34-17.34,15.09-1.24,16.1-2.25,17.34-17.34,1.25,15.09,2.25,16.1,17.34,17.34Z"/>
</svg>