<?xml version="1.0" encoding="UTF-8"?>
<svg id="Layer_1" xmlns="http://www.w3.org/2000/svg" version="1.1" viewBox="0 0 612 792">
  <!-- Generator: Adobe Illustrator 29.8.1, SVG Export Plug-In . SVG Version: 2.1.1 Build 2)  -->
  <defs>
    <style>
      .st0 {
        fill: #fff;
      }
    </style>
  </defs>
  <path class="st0" d="M563.45,404.21c-209.02,17.24-223,31.22-240.24,240.24-17.24-209.02-31.22-223-240.24-240.24,209.02-17.24,223-31.22,240.24-240.24,17.24,209.02,31.22,223,240.24,240.24h0Z"/>
  <path class="st0" d="M493.46,507.05c-43.88,3.62-46.81,6.55-50.43,50.43-3.62-43.88-6.55-46.81-50.43-50.43,43.88-3.62,46.81-6.55,50.43-50.43,3.62,43.88,6.55,46.81,50.43,50.43Z"/>
  <path class="st0" d="M202.39,264.29c-18.05,1.49-19.25,2.69-20.74,20.74-1.49-18.05-2.69-19.25-20.74-20.74,18.05-1.49,19.25-2.69,20.74-20.74,1.49,18.05,2.7,19.25,20.74,20.74Z"/>
</svg>