<?xml version="1.0" encoding="UTF-8"?>
<svg id="Layer_1" xmlns="http://www.w3.org/2000/svg" version="1.1" viewBox="0 0 612 792">
  <!-- Generator: Adobe Illustrator 29.8.1, SVG Export Plug-In . SVG Version: 2.1.1 Build 2)  -->
  <defs>
    <style>
      .st0 {
        fill: #fff;
      }
    </style>
  </defs>
  <path class="st0" d="M501.83,405.12c-173.68,14.33-185.29,25.94-199.61,199.61-14.33-173.68-25.94-185.29-199.62-199.61,173.68-14.33,185.29-25.94,199.62-199.62,14.32,173.68,25.94,185.29,199.61,199.62h0Z"/>
  <path class="st0" d="M502.7,280.89c-76.7,6.33-81.83,11.45-88.16,88.16-6.33-76.7-11.46-81.83-88.16-88.16,76.7-6.33,81.83-11.46,88.16-88.16,6.33,76.7,11.46,81.83,88.16,88.16Z"/>
  <path class="st0" d="M256.89,518.76c-36.46,3.01-38.9,5.44-41.9,41.9-3.01-36.46-5.45-38.9-41.9-41.9,36.46-3.01,38.9-5.45,41.9-41.9,3.01,36.46,5.44,38.9,41.9,41.9Z"/>
</svg>