<?xml version="1.0" encoding="UTF-8"?>
<svg id="Layer_1" xmlns="http://www.w3.org/2000/svg" version="1.1" viewBox="0 0 612 792">
  <!-- Generator: Adobe Illustrator 29.8.1, SVG Export Plug-In . SVG Version: 2.1.1 Build 2)  -->
  <defs>
    <style>
      .st0 {
        fill: #fff;
      }
    </style>
  </defs>
  <path class="st0" d="M561.34,383.59c-199.48,16.45-212.82,29.79-229.28,229.28-16.45-199.48-29.79-212.82-229.28-229.28,199.48-16.45,212.82-29.79,229.28-229.28,16.45,199.48,29.79,212.82,229.28,229.28Z"/>
  <path class="st0" d="M248.13,514.13c-66.97,5.52-71.45,10-76.97,76.97-5.52-66.97-10-71.45-76.97-76.97,66.97-5.52,71.45-10,76.97-76.97,5.52,66.97,10,71.45,76.97,76.97Z"/>
  <path class="st0" d="M172.23,332.98c-14.14,1.17-15.08,2.11-16.25,16.25-1.17-14.14-2.11-15.09-16.25-16.25,14.14-1.17,15.09-2.11,16.25-16.25,1.17,14.14,2.11,15.09,16.25,16.25Z"/>
  <path class="st0" d="M391.33,529.34c-14.14,1.17-15.08,2.11-16.25,16.25-1.17-14.14-2.11-15.08-16.25-16.25,14.14-1.17,15.09-2.11,16.25-16.25,1.17,14.14,2.11,15.09,16.25,16.25Z"/>
  <path class="st0" d="M127.21,462.55c-14.14,1.17-15.09,2.11-16.25,16.25-1.17-14.14-2.11-15.09-16.25-16.25,14.14-1.17,15.09-2.11,16.25-16.25,1.17,14.14,2.11,15.08,16.25,16.25Z"/>
</svg>